<?xml version="1.0" encoding="UTF-8"?><svg id="Layer_1" xmlns="http://www.w3.org/2000/svg" viewBox="0 0 415.54 185.43"><defs><style>.cls-1{fill:#0093b8;}.cls-2{fill:#fff;}</style></defs><g><path class="cls-1" d="M54.2,28.29c.23-.93,1.16-1.75,2.1-1.75h1.86c.7,0,1.75,.58,1.98,1.28l24.33,59.49h.47l24.22-59.49c.23-.7,1.16-1.28,1.98-1.28h1.86c.93,0,1.86,.82,2.1,1.75l14.32,78.24c.35,1.63-.47,2.68-2.1,2.68h-7.57c-1.05,0-1.98-.81-2.21-1.63l-8.62-52.04h-.35l-20.96,53.56c-.23,.7-.93,1.28-1.98,1.28h-2.1c-.93,0-1.75-.58-1.98-1.28l-21.07-53.56h-.47l-8.38,52.04c-.12,.81-1.16,1.63-2.1,1.63h-7.57c-1.63,0-2.45-1.05-2.21-2.68L54.2,28.29Z"/><path class="cls-1" d="M141.86,29.91c0-1.16,1.05-2.21,2.21-2.21h7.68c1.16,0,2.21,1.05,2.21,2.21V106.99c0,1.16-1.05,2.21-2.21,2.21h-7.68c-1.16,0-2.21-1.05-2.21-2.21V29.91Z"/><path class="cls-1" d="M170.07,29.91c0-1.16,.93-2.21,2.21-2.21h7.68c1.16,0,2.21,1.05,2.21,2.21V98.37h31.55c1.28,0,2.21,1.05,2.21,2.21v6.4c0,1.16-.93,2.21-2.21,2.21h-41.45c-1.28,0-2.21-1.05-2.21-2.21V29.91Z"/><path class="cls-1" d="M221.41,106.17l35.74-78.35c.35-.7,1.4-1.28,1.98-1.28h1.16c.58,0,1.63,.58,1.98,1.28l35.51,78.35c.7,1.51-.23,3.03-1.98,3.03h-7.33c-1.4,0-2.21-.7-2.68-1.75l-7.22-15.95h-38.07c-2.33,5.36-4.77,10.59-7.1,15.95-.35,.82-1.28,1.75-2.68,1.75h-7.33c-1.75,0-2.68-1.51-1.98-3.03Zm52.74-24.68l-14.32-31.9h-.58l-14.2,31.9h29.11Z"/><path class="cls-1" d="M310.01,28.63c0-1.16,1.05-2.1,2.21-2.1h2.91l50.53,58.45h.12V29.91c0-1.16,.93-2.21,2.21-2.21h7.45c1.16,0,2.21,1.05,2.21,2.21V108.27c0,1.16-1.05,2.1-2.21,2.1h-3.03l-50.53-60.07h-.12v56.7c0,1.16-.93,2.21-2.21,2.21h-7.33c-1.16,0-2.21-1.05-2.21-2.21V28.63Z"/></g><rect class="cls-1" x="39.28" y="120.66" width="339.48" height="39.56"/><g><path class="cls-2" d="M49.28,153.2v-26.87h4.37v22.96h9.76v3.91h-14.13Z"/><path class="cls-2" d="M82.61,153.2h-3.98v-2.26c-.71,1-1.54,1.75-2.49,2.24-.95,.49-2.03,.73-3.26,.73-2.46,0-4.39-.84-5.81-2.52-1.41-1.68-2.12-3.99-2.12-6.91s.72-5.02,2.17-6.73c1.44-1.71,3.33-2.56,5.65-2.56,1.42,0,2.63,.3,3.64,.89,1.01,.59,1.75,1.45,2.21,2.56v-2.84h3.98v17.4Zm-3.87-8.75c0-1.8-.42-3.2-1.26-4.2-.84-1-2.01-1.51-3.51-1.51s-2.69,.52-3.55,1.55c-.86,1.03-1.29,2.47-1.29,4.3s.42,3.27,1.25,4.28c.83,1,2.01,1.5,3.52,1.5,1.43,0,2.6-.54,3.5-1.63,.9-1.09,1.35-2.52,1.35-4.29Z"/><path class="cls-2" d="M85.74,150.04l3.3-1.8c.24,.87,.7,1.53,1.36,1.98,.66,.45,1.51,.68,2.55,.68,.89,0,1.59-.2,2.1-.62,.51-.41,.76-.97,.76-1.68,0-.94-.91-1.75-2.72-2.42-.61-.22-1.08-.4-1.41-.55-1.86-.77-3.16-1.55-3.9-2.35s-1.11-1.76-1.11-2.9c0-1.55,.61-2.81,1.83-3.78,1.22-.97,2.83-1.45,4.84-1.45,1.35,0,2.5,.25,3.46,.74,.96,.5,1.66,1.2,2.1,2.12l-2.83,1.95c-.21-.55-.57-.99-1.09-1.31-.52-.32-1.12-.49-1.81-.49-.76,0-1.37,.18-1.83,.54-.46,.36-.69,.84-.69,1.44,0,.91,1.03,1.73,3.08,2.48,.65,.23,1.15,.42,1.5,.57,1.6,.64,2.75,1.36,3.44,2.16,.69,.8,1.04,1.8,1.04,3,0,1.74-.63,3.1-1.89,4.08-1.26,.99-3,1.48-5.21,1.48-1.7,0-3.11-.32-4.24-.95-1.13-.64-2.01-1.61-2.64-2.92Z"/><path class="cls-2" d="M120.13,145.09h-13.91c.1,1.63,.58,2.9,1.45,3.81,.87,.91,2.02,1.37,3.47,1.37,1.28,0,2.35-.27,3.21-.81,.86-.54,1.6-1.41,2.24-2.61l3.36,1.87c-.98,1.75-2.19,3.05-3.63,3.91-1.44,.86-3.14,1.28-5.08,1.28-2.79,0-5.01-.85-6.66-2.55-1.65-1.7-2.48-3.97-2.48-6.81s.85-4.97,2.56-6.73,3.9-2.63,6.58-2.63,4.99,.8,6.55,2.4c1.57,1.6,2.35,3.85,2.35,6.74v.75Zm-4.13-2.68c-.16-1.25-.64-2.2-1.43-2.85-.8-.65-1.88-.98-3.27-.98-1.31,0-2.36,.32-3.16,.95-.8,.64-1.35,1.6-1.67,2.88h9.52Z"/><path class="cls-2" d="M127.88,138.57c.43-1.15,.99-2,1.7-2.55s1.58-.83,2.62-.83c.56,0,1.12,.07,1.66,.2,.54,.13,1.08,.33,1.61,.59l-1.43,3.38c-.34-.24-.71-.42-1.11-.54s-.84-.17-1.33-.17c-1.32,0-2.27,.53-2.84,1.59-.58,1.06-.86,2.84-.86,5.33v7.63h-3.98v-17.43h3.98v2.81Z"/><path class="cls-2" d="M148.66,153.2v-26.87h4.37v9.91h13.21v-9.91h4.37v26.87h-4.37v-13.05h-13.21v13.05h-4.37Z"/><path class="cls-2" d="M192.43,153.2h-3.98v-2.26c-.71,1-1.54,1.75-2.49,2.24-.95,.49-2.03,.73-3.26,.73-2.46,0-4.39-.84-5.81-2.52-1.41-1.68-2.12-3.99-2.12-6.91s.72-5.02,2.17-6.73c1.44-1.71,3.33-2.56,5.65-2.56,1.42,0,2.63,.3,3.64,.89,1.01,.59,1.75,1.45,2.21,2.56v-2.84h3.98v17.4Zm-3.87-8.75c0-1.8-.42-3.2-1.26-4.2-.84-1-2.01-1.51-3.51-1.51s-2.69,.52-3.55,1.55c-.86,1.03-1.29,2.47-1.29,4.3s.42,3.27,1.25,4.28c.83,1,2.01,1.5,3.52,1.5,1.43,0,2.6-.54,3.5-1.63,.9-1.09,1.35-2.52,1.35-4.29Z"/><path class="cls-2" d="M197.22,128.28c0-.67,.25-1.25,.74-1.74,.5-.49,1.09-.73,1.77-.73s1.3,.24,1.77,.71c.47,.47,.71,1.06,.71,1.77s-.24,1.31-.72,1.79c-.48,.48-1.06,.73-1.76,.73s-1.28-.25-1.77-.74c-.5-.5-.74-1.09-.74-1.77Zm.53,24.92v-17.4h3.98v17.4h-3.98Z"/><path class="cls-2" d="M211.03,138.57c.43-1.15,.99-2,1.7-2.55s1.58-.83,2.62-.83c.56,0,1.12,.07,1.66,.2,.54,.13,1.08,.33,1.61,.59l-1.43,3.38c-.34-.24-.71-.42-1.11-.54s-.84-.17-1.33-.17c-1.32,0-2.27,.53-2.84,1.59-.58,1.06-.86,2.84-.86,5.33v7.63h-3.98v-17.43h3.98v2.81Z"/><path class="cls-2" d="M235.89,141.18v12.02h-4.09v-26.87h6.09c1.79,0,3.17,.12,4.16,.35,.98,.23,1.83,.62,2.52,1.16,.83,.65,1.47,1.49,1.93,2.51,.45,1.03,.68,2.15,.68,3.38,0,2.15-.52,3.84-1.56,5.06-1.04,1.22-2.58,1.95-4.61,2.19l9.25,12.22h-4.94l-8.94-12.02h-.5Zm.28-3.39h.79c2.31,0,3.85-.27,4.61-.81,.76-.54,1.14-1.49,1.14-2.86,0-1.48-.41-2.52-1.22-3.13-.81-.61-2.32-.91-4.52-.91h-.79v7.71Z"/><path class="cls-2" d="M268.24,145.09h-13.91c.1,1.63,.58,2.9,1.45,3.81s2.03,1.37,3.47,1.37c1.28,0,2.36-.27,3.21-.81,.86-.54,1.6-1.41,2.24-2.61l3.36,1.87c-.98,1.75-2.19,3.05-3.63,3.91-1.44,.86-3.14,1.28-5.08,1.28-2.79,0-5.01-.85-6.66-2.55s-2.48-3.97-2.48-6.81,.85-4.97,2.56-6.73,3.9-2.63,6.58-2.63,4.99,.8,6.55,2.4c1.57,1.6,2.35,3.85,2.35,6.74v.75Zm-4.13-2.68c-.16-1.25-.64-2.2-1.43-2.85-.8-.65-1.88-.98-3.27-.98-1.31,0-2.36,.32-3.16,.95-.8,.64-1.35,1.6-1.67,2.88h9.52Z"/><path class="cls-2" d="M275.99,153.2h-3.98v-17.4h3.74v2.84c.8-1.21,1.7-2.1,2.71-2.65,1.01-.56,2.2-.84,3.57-.84s2.48,.28,3.38,.85c.89,.57,1.57,1.43,2.04,2.6,.92-1.2,1.89-2.07,2.93-2.62s2.21-.83,3.53-.83c1.15,0,2.15,.21,3.01,.63s1.52,1.04,2,1.84c.22,.38,.38,.83,.49,1.36,.1,.53,.16,1.28,.16,2.26v11.95h-3.98v-8.94c0-2.34-.25-3.88-.74-4.62s-1.38-1.11-2.65-1.11c-1.57,0-2.68,.5-3.35,1.5s-1,2.74-1,5.24v7.93h-4.02v-8.94c0-2.15-.26-3.65-.78-4.48-.52-.83-1.42-1.25-2.69-1.25-.78,0-1.5,.18-2.15,.53-.65,.35-1.16,.84-1.54,1.47-.25,.4-.42,.9-.51,1.49-.1,.59-.15,1.67-.15,3.25v7.93Z"/><path class="cls-2" d="M303.24,144.52c0-1.27,.24-2.47,.72-3.61,.48-1.13,1.18-2.14,2.08-3.02,.89-.87,1.92-1.53,3.08-2,1.16-.46,2.38-.7,3.65-.7s2.54,.23,3.7,.7c1.16,.47,2.19,1.15,3.11,2.06,.92,.89,1.62,1.9,2.09,3.03,.48,1.13,.72,2.31,.72,3.54s-.23,2.49-.71,3.61c-.47,1.13-1.16,2.12-2.06,2.99-.95,.92-2.01,1.61-3.17,2.08s-2.39,.71-3.67,.71-2.47-.24-3.63-.71-2.2-1.15-3.1-2.05c-.92-.91-1.62-1.92-2.09-3.05-.48-1.13-.72-2.32-.72-3.6Zm14.96,.04c0-1.62-.52-2.98-1.56-4.1-1.04-1.12-2.31-1.68-3.82-1.68s-2.76,.56-3.81,1.68c-1.05,1.12-1.57,2.49-1.57,4.1s.52,2.98,1.57,4.1c1.05,1.12,2.31,1.68,3.81,1.68s2.76-.56,3.81-1.68c1.05-1.12,1.57-2.49,1.57-4.1Z"/><path class="cls-2" d="M332.35,154.25l-9.12-18.44h4.35l3.8,8.75c.12,.27,.27,.67,.44,1.21s.35,1.18,.53,1.93c.12-.53,.27-1.05,.43-1.57,.16-.52,.36-1.04,.6-1.57l3.78-8.75h4.33l-9.14,18.44Z"/><path class="cls-2" d="M359.98,153.2h-3.98v-2.26c-.71,1-1.54,1.75-2.49,2.24-.95,.49-2.03,.73-3.26,.73-2.46,0-4.40-.84-5.81-2.52-1.41-1.68-2.12-3.99-2.12-6.91s.72-5.02,2.17-6.73,3.33-2.56,5.65-2.56c1.42,0,2.63,.3,3.64,.89,1.01,.59,1.75,1.45,2.21,2.56v-2.84h3.98v17.4Zm-3.87-8.75c0-1.8-.42-3.2-1.26-4.2-.84-1-2.01-1.51-3.51-1.51s-2.69,.52-3.55,1.55c-.86,1.03-1.29,2.47-1.29,4.3s.41,3.27,1.25,4.28c.83,1,2.01,1.5,3.52,1.5,1.43,0,2.6-.54,3.5-1.63,.9-1.09,1.35-2.52,1.35-4.29Z"/><path class="cls-2" d="M365.29,153.2v-28.45h3.98v28.45h-3.98Z"/></g><path class="cls-1" d="M381.7,151.3h6.62v1.33h-2.38v6.36h-1.83v-6.36h-2.41v-1.33Zm8.28,0h2.41l2,5.11,1.89-5.11h2.41v7.69h-1.62v-6.07l-2.27,6.07h-.84l-2.35-6.07v6.07h-1.63v-7.69Z"/></svg>
