<?xml version="1.0" encoding="UTF-8"?><svg id="Layer_1" xmlns="http://www.w3.org/2000/svg" viewBox="0 0 415.54 185.43"><defs><style>.cls-1{fill:#fff;}</style></defs><path class="cls-1" d="M41.98,109.2h7.57c.93,0,1.98-.81,2.1-1.63l8.38-52.04h.47l21.07,53.56c.23,.7,1.05,1.28,1.98,1.28h2.1c1.05,0,1.75-.58,1.98-1.28l20.96-53.56h.35l8.62,52.04c.23,.81,1.16,1.63,2.21,1.63h7.57c1.63,0,2.44-1.05,2.1-2.68l-14.32-78.24c-.23-.93-1.16-1.75-2.1-1.75h-1.86c-.82,0-1.75,.58-1.98,1.28l-24.22,59.49h-.47L60.14,27.82c-.23-.7-1.28-1.28-1.98-1.28h-1.86c-.93,0-1.86,.82-2.1,1.75l-14.44,78.24c-.23,1.63,.58,2.68,2.21,2.68Z"/><rect class="cls-1" x="141.86" y="27.7" width="12.11" height="81.5" rx="2.21" ry="2.21"/><path class="cls-1" d="M172.28,109.2h41.45c1.28,0,2.21-1.05,2.21-2.21v-6.4c0-1.16-.93-2.21-2.21-2.21h-31.55V29.91c0-1.16-1.05-2.21-2.21-2.21h-7.68c-1.28,0-2.21,1.05-2.21,2.21V106.99c0,1.16,.93,2.21,2.21,2.21Z"/><path class="cls-1" d="M223.39,109.2h7.33c1.4,0,2.33-.93,2.68-1.75,2.33-5.36,4.77-10.59,7.1-15.95h38.07l7.22,15.95c.47,1.05,1.28,1.75,2.68,1.75h7.34c1.75,0,2.68-1.51,1.98-3.03l-35.51-78.35c-.35-.7-1.4-1.28-1.98-1.28h-1.16c-.58,0-1.63,.58-1.98,1.28l-35.74,78.35c-.7,1.51,.23,3.03,1.98,3.03Zm35.86-59.61h.58l14.32,31.9h-29.11l14.2-31.9Z"/><path class="cls-1" d="M312.22,109.2h7.33c1.28,0,2.21-1.05,2.21-2.21V50.29h.12l50.53,60.07h3.03c1.16,0,2.21-.93,2.21-2.1V29.91c0-1.16-1.05-2.21-2.21-2.21h-7.45c-1.28,0-2.21,1.05-2.21,2.21v55.07h-.12l-50.53-58.45h-2.91c-1.16,0-2.21,.93-2.21,2.1V106.99c0,1.16,1.05,2.21,2.21,2.21Z"/><path class="cls-1" d="M259.41,138.57c-1.31,0-2.36,.32-3.16,.95-.8,.64-1.35,1.6-1.67,2.88h9.52c-.16-1.25-.64-2.2-1.43-2.85-.8-.65-1.88-.98-3.27-.98Z"/><path class="cls-1" d="M242.7,134.12c0-1.48-.41-2.52-1.22-3.13-.81-.61-2.32-.91-4.52-.91h-.79v7.71h.79c2.31,0,3.85-.27,4.61-.81,.76-.54,1.14-1.49,1.14-2.86Z"/><path class="cls-1" d="M378.75,120.66H39.28v39.56H378.75v-39.56ZM63.41,153.2h-14.13v-26.87h4.37v22.96h9.76v3.91Zm19.21,0h-3.98v-2.26c-.71,1-1.54,1.75-2.49,2.24-.95,.49-2.03,.73-3.26,.73-2.46,0-4.39-.84-5.81-2.52-1.41-1.68-2.12-3.99-2.12-6.91s.72-5.02,2.17-6.73c1.44-1.71,3.33-2.56,5.65-2.56,1.42,0,2.63,.3,3.64,.89,1.01,.59,1.75,1.45,2.21,2.56v-2.84h3.98v17.4Zm15.22-.76c-1.26,.99-3,1.48-5.21,1.48-1.7,0-3.11-.32-4.24-.95-1.13-.64-2.01-1.61-2.64-2.92l3.3-1.8c.24,.87,.7,1.53,1.36,1.98,.66,.45,1.51,.68,2.55,.68,.89,0,1.59-.2,2.1-.62,.51-.41,.76-.97,.76-1.68,0-.94-.91-1.75-2.72-2.42-.61-.22-1.08-.4-1.41-.55-1.86-.77-3.16-1.55-3.9-2.35-.74-.8-1.11-1.76-1.11-2.9,0-1.55,.61-2.81,1.83-3.78,1.22-.97,2.83-1.45,4.84-1.45,1.35,0,2.5,.25,3.46,.74,.96,.5,1.66,1.2,2.1,2.12l-2.83,1.95c-.21-.55-.57-.99-1.09-1.31-.52-.32-1.12-.49-1.81-.49-.76,0-1.37,.18-1.83,.54-.46,.36-.69,.84-.69,1.44,0,.91,1.03,1.73,3.08,2.48,.65,.23,1.15,.42,1.5,.57,1.6,.64,2.75,1.36,3.44,2.16,.69,.8,1.04,1.8,1.04,3,0,1.74-.63,3.1-1.89,4.08Zm22.29-7.35h-13.91c.1,1.63,.58,2.9,1.45,3.81,.87,.91,2.02,1.37,3.47,1.37,1.28,0,2.35-.27,3.21-.81,.86-.54,1.6-1.41,2.24-2.61l3.36,1.87c-.98,1.75-2.19,3.05-3.63,3.91-1.44,.86-3.14,1.28-5.08,1.28-2.79,0-5.01-.85-6.66-2.55-1.65-1.7-2.48-3.97-2.48-6.81s.85-4.97,2.56-6.73c1.71-1.76,3.9-2.63,6.58-2.63s4.99,.8,6.55,2.4c1.57,1.6,2.35,3.85,2.35,6.74v.75Zm13.9-5.73c-.34-.24-.71-.42-1.11-.54s-.84-.17-1.33-.17c-1.32,0-2.27,.53-2.84,1.59-.58,1.06-.86,2.84-.86,5.33v7.63h-3.98v-17.43h3.98v2.81c.43-1.15,.99-2,1.7-2.55,.7-.55,1.58-.83,2.62-.83,.56,0,1.12,.07,1.66,.2,.54,.13,1.08,.33,1.61,.59l-1.43,3.38Zm36.58,13.84h-4.37v-13.05h-13.21v13.05h-4.37v-26.87h4.37v9.91h13.21v-9.91h4.37v26.87Zm21.83,0h-3.98v-2.26c-.71,1-1.54,1.75-2.49,2.24-.95,.49-2.03,.73-3.26,.73-2.46,0-4.39-.84-5.81-2.52-1.41-1.68-2.12-3.99-2.12-6.91s.72-5.02,2.17-6.73c1.44-1.71,3.33-2.56,5.65-2.56,1.42,0,2.63,.3,3.64,.89,1.01,.59,1.75,1.45,2.21,2.56v-2.84h3.98v17.4Zm9.3,0h-3.98v-17.4h3.98v17.4Zm-.24-23.13c-.48,.48-1.06,.73-1.76,.73s-1.28-.25-1.77-.74c-.5-.5-.74-1.09-.74-1.77s.25-1.25,.74-1.74c.5-.49,1.09-.73,1.77-.73s1.3,.24,1.77,.71,.71,1.06,.71,1.77-.24,1.31-.72,1.79Zm15.68,9.3c-.34-.24-.71-.42-1.11-.54s-.84-.17-1.33-.17c-1.32,0-2.27,.53-2.84,1.59-.58,1.06-.86,2.84-.86,5.33v7.63h-3.98v-17.43h3.98v2.81c.43-1.15,.99-2,1.7-2.55,.7-.55,1.58-.83,2.62-.83,.56,0,1.12,.07,1.66,.2,.54,.13,1.08,.33,1.61,.59l-1.43,3.38Zm28.15,13.84l-8.94-12.02h-.5v12.02h-4.09v-26.87h6.09c1.79,0,3.17,.12,4.16,.35,.98,.23,1.83,.62,2.52,1.16,.83,.65,1.47,1.49,1.93,2.51,.45,1.03,.68,2.15,.68,3.38,0,2.15-.52,3.84-1.56,5.06-1.04,1.22-2.58,1.95-4.61,2.19l9.25,12.22h-4.94Zm22.91-8.11h-13.91c.1,1.63,.58,2.9,1.45,3.81s2.03,1.37,3.47,1.37c1.28,0,2.36-.27,3.21-.81,.86-.54,1.6-1.41,2.24-2.61l3.36,1.87c-.98,1.75-2.19,3.05-3.63,3.91-1.44,.86-3.14,1.28-5.08,1.28-2.79,0-5.01-.85-6.66-2.55-1.65-1.7-2.48-3.97-2.48-6.81s.85-4.97,2.56-6.73c1.71-1.76,3.9-2.63,6.58-2.63s4.99,.8,6.55,2.4c1.57,1.6,2.35,3.85,2.35,6.74v.75Zm31.32-2.44v10.55h-3.98v-8.94c0-2.34-.25-3.88-.74-4.62-.5-.74-1.38-1.11-2.65-1.11-1.57,0-2.68,.5-3.35,1.5s-1,2.74-1,5.24v7.93h-4.02v-8.94c0-2.15-.26-3.65-.78-4.48-.52-.83-1.42-1.25-2.69-1.25-.78,0-1.5,.18-2.15,.53-.65,.35-1.16,.84-1.54,1.47-.25,.4-.42,.9-.51,1.49-.1,.59-.15,1.67-.15,3.25v7.93h-3.98v-17.4h3.74v2.84c.8-1.21,1.7-2.1,2.71-2.65,1.01-.56,2.2-.84,3.57-.84s2.48,.28,3.38,.85c.89,.57,1.57,1.43,2.04,2.6,.92-1.2,1.89-2.07,2.93-2.62,1.03-.55,2.21-.83,3.53-.83,1.15,0,2.15,.21,3.01,.63,.86,.42,1.52,1.04,2,1.84,.22,.38,.38,.83,.49,1.36,.1,.53,.16,1.28,.16,2.26v1.39Zm22.13,5.49c-.47,1.13-1.16,2.12-2.06,2.99-.95,.92-2.01,1.61-3.17,2.08-1.16,.47-2.39,.71-3.67,.71s-2.47-.24-3.63-.71c-1.16-.47-2.2-1.15-3.1-2.05-.92-.91-1.62-1.92-2.09-3.05-.48-1.13-.72-2.32-.72-3.6s.24-2.47,.72-3.61c.48-1.13,1.18-2.14,2.08-3.02,.89-.87,1.92-1.53,3.08-2,1.16-.46,2.38-.7,3.65-.7s2.54,.23,3.7,.7c1.16,.47,2.19,1.15,3.11,2.06,.92,.89,1.62,1.9,2.09,3.03,.48,1.13,.72,2.31,.72,3.54s-.23,2.49-.71,3.61Zm10.66,6.11l-9.12-18.44h4.35l3.8,8.75c.12,.27,.27,.67,.44,1.21,.17,.54,.35,1.18,.53,1.93,.12-.53,.27-1.05,.43-1.57,.16-.52,.36-1.04,.6-1.57l3.78-8.75h4.33l-9.14,18.44Zm27.63-1.05h-3.98v-2.26c-.71,1-1.54,1.75-2.49,2.24-.95,.49-2.03,.73-3.26,.73-2.46,0-4.4-.84-5.81-2.52-1.41-1.68-2.12-3.99-2.12-6.91s.72-5.02,2.17-6.73c1.44-1.71,3.33-2.56,5.65-2.56,1.42,0,2.63,.3,3.64,.89,1.01,.59,1.75,1.45,2.21,2.56v-2.84h3.98v17.4Zm9.3,0h-3.98v-28.45h3.98v28.45Z"/><path class="cls-1" d="M351.34,138.74c-1.5,0-2.69,.52-3.55,1.55-.86,1.03-1.29,2.47-1.29,4.3s.41,3.27,1.25,4.28c.83,1,2.01,1.5,3.52,1.5,1.43,0,2.6-.54,3.5-1.63,.9-1.09,1.35-2.52,1.35-4.29s-.42-3.2-1.26-4.2c-.84-1-2.01-1.51-3.51-1.51Z"/><path class="cls-1" d="M312.82,138.78c-1.49,0-2.76,.56-3.81,1.68-1.05,1.12-1.57,2.49-1.57,4.1s.52,2.98,1.57,4.1c1.05,1.12,2.31,1.68,3.81,1.68s2.76-.56,3.81-1.68c1.05-1.12,1.57-2.49,1.57-4.1s-.52-2.98-1.56-4.1c-1.04-1.12-2.31-1.68-3.82-1.68Z"/><path class="cls-1" d="M183.79,138.74c-1.51,0-2.69,.52-3.55,1.55-.86,1.03-1.29,2.47-1.29,4.3s.42,3.27,1.25,4.28c.83,1,2.01,1.5,3.52,1.5,1.43,0,2.6-.54,3.5-1.63,.9-1.09,1.35-2.52,1.35-4.29s-.42-3.2-1.26-4.2c-.84-1-2.01-1.51-3.51-1.51Z"/><path class="cls-1" d="M111.3,138.57c-1.31,0-2.36,.32-3.16,.95-.8,.64-1.35,1.6-1.67,2.88h9.52c-.16-1.25-.64-2.2-1.43-2.85-.8-.65-1.88-.98-3.27-.98Z"/><path class="cls-1" d="M73.97,138.74c-1.51,0-2.69,.52-3.55,1.55-.86,1.03-1.29,2.47-1.29,4.3s.42,3.27,1.25,4.28c.83,1,2.01,1.5,3.52,1.5,1.43,0,2.6-.54,3.5-1.63,.9-1.09,1.35-2.52,1.35-4.29s-.42-3.2-1.26-4.2c-.84-1-2.01-1.51-3.51-1.51Z"/><polygon class="cls-1" points="384.11 158.99 385.94 158.99 385.94 152.64 388.33 152.64 388.33 151.3 381.7 151.3 381.7 152.64 384.11 152.64 384.11 158.99"/><polygon class="cls-1" points="397.08 152.92 397.08 158.99 398.7 158.99 398.7 151.3 396.28 151.3 394.4 156.41 392.4 151.3 389.99 151.3 389.99 158.99 391.62 158.99 391.62 152.92 393.97 158.99 394.81 158.99 397.08 152.92"/></svg>
