<?xml version="1.0" encoding="UTF-8"?><svg id="Layer_1" xmlns="http://www.w3.org/2000/svg" viewBox="0 0 216 216"><defs><style>.cls-1{fill:#0093b8;}.cls-2{fill:#fff;}</style></defs><path class="cls-1" d="M108,210.6h0c-56.67,0-102.6-45.93-102.6-102.6S51.33,5.4,108,5.4s102.6,45.93,102.6,102.6-45.93,102.6-102.6,102.6"/><path class="cls-2" d="M69.09,52.33c.3-1.19,1.49-2.24,2.68-2.24h2.38c.9,0,2.24,.74,2.54,1.64l31.14,76.13h.6l30.99-76.13c.3-.89,1.49-1.64,2.53-1.64h2.39c1.19,0,2.38,1.04,2.68,2.24l18.33,100.12c.44,2.08-.6,3.43-2.68,3.43h-9.69c-1.34,0-2.53-1.04-2.83-2.09l-11.02-66.6h-.45l-26.82,68.54c-.3,.89-1.19,1.64-2.54,1.64h-2.68c-1.19,0-2.24-.74-2.54-1.64l-26.97-68.54h-.59l-10.73,66.6c-.15,1.04-1.49,2.09-2.68,2.09h-9.69c-2.09,0-3.13-1.34-2.83-3.43l18.48-100.12Z"/></svg>
